<svg id="Layer_2" enable-background="new 0 0 32 32" height="14" viewBox="0 0 32 32" width="14" xmlns="http://www.w3.org/2000/svg" version="1.1" xmlns:xlink="http://www.w3.org/1999/xlink" xmlns:svgjs="http://svgjs.dev/svgjs"><g transform="matrix(1,0,0,1,0,0)"><g><path d="m16 1c-8.27087 0-15 6.72913-15 15s6.72913 15 15 15 15-6.72913 15-15-6.72913-15-15-15zm0 26.25c-6.20361 0-11.25-5.04639-11.25-11.25s5.04639-11.25 11.25-11.25 11.25 5.04639 11.25 11.25-5.04639 11.25-11.25 11.25z" fill="#B1B1B1" data-original-color="#000000ff" stroke="none"/><path d="m16 7.07709c-1.03546 0-1.875.83954-1.875 1.875v8.47046c0 1.03546.83954 1.875 1.875 1.875s1.875-.83954 1.875-1.875v-8.47046c0-1.03546-.83954-1.875-1.875-1.875z" fill="#B1B1B1" data-original-color="#000000ff" stroke="none"/><circle cx="16" cy="23.048" r="1.875" fill="#B1B1B1" data-original-color="#000000ff" stroke="none"/></g></g></svg>