<svg version="1.1" id="Capa_1" xmlns="http://www.w3.org/2000/svg" xmlns:xlink="http://www.w3.org/1999/xlink" x="0px" y="0px" width="25" height="25" viewBox="0 0 792.049 792.049" style="enable-background:new 0 0 792.049 792.049;" xml:space="preserve" xmlns:svgjs="http://svgjs.dev/svgjs"><g transform="matrix(1,0,0,1,0,0)"><g>
	<g id="_x38__35_">
		<g>
			<path d="M622.955,342.127L268.424,20.521c-27.36-27.36-71.677-27.36-99.037,0c-27.36,27.36-27.36,71.676,0,99.037&#10;&#9;&#9;&#9;&#9;l304.749,276.468L169.387,672.492c-27.36,27.359-27.36,71.676,0,99.036s71.677,27.36,99.037,0l354.531-321.606&#10;&#9;&#9;&#9;&#9;c14.783-14.783,21.302-34.538,20.084-53.897C644.225,376.665,637.738,356.911,622.955,342.127z" fill="#4d9fffff" data-original-color="#000000ff" stroke="none"/>
		</g>
	</g>
</g><g>
</g><g>
</g><g>
</g><g>
</g><g>
</g><g>
</g><g>
</g><g>
</g><g>
</g><g>
</g><g>
</g><g>
</g><g>
</g><g>
</g><g>
</g></g></svg>